Willie Nelson
"Stardust"



original release:
1978 Columbia Records JC 35305

This reissue, 1999, Classic Records JC 35305-45
200 gram 4xLP, single sided 45 RPM pressings

matrix/deadwax info (hand etched):
JC 35305-A1-45
JC 35305-A2-45
JC 35305-xxB1-45
JC 35305-B2-45
"Bernie Grundman" etched in cursive on all sides

mastered by Bernie Grundman

tracks:
A1 - Stardust
A2 - Georgia On My Mind
B1 - Blue Skies
B2 - All Of Me
B3 - Unchained Melody
C1 - September Song
C2 - On The Sunny Side Of The Street
D1 - Moonlight In Vermont
D2 - Don't Get Around Much Anymore
D3 - Someone To Watch Over Me

musicians:
Willie Nelson – vocals, nylon string guitar
Bobbie Nelson – piano
Paul English – drums
Rex Ludwig – drums
Jody Payne – guitar
Bee Spears – bass
Chris Ethridge – bass
Mickey Raphael – harmonica
Booker T. Jones – organ, piano

Produced and arranged by Booker T. Jones

recorded December 3 – 12, 1977
recorded and mixed in the Enactron Truck
engineers: Bradley Hartman and Donivan Cowart







vinyl LP transfer at 24-bit 192khz
transfer info:
Nitty Gritty Record Master
Music Hall MMF 9.1
sticky hand stylus cleaning
Goldring 1042 cartridge
Graham Slee Era Gold Reflex phono preamp
Mytek Stereo192 ADC (analog to digital converter)
TT Weights center weight, cork platter mat, Blue Jean LC-1 interconnects
software used: Soundforge 10.0, ClickRepair 3.4.1 (in manual mode), Flac frontend 1.7.1
transferred July 2011

flac fingerprints:
A1 - Stardust.flac:7bb245bdb071dffd380ddb363c6eb0fa
A2 - Georgia On My Mind.flac:f7bca7bd60346d3ac8b01619774498ad
B1 - Blue Skies.flac:e9fb1ee244825dc119441221dfe2fa88
B2 - All Of Me.flac:ad4af7af2101287773ba923050bff06e
B3 - Unchained Melody.flac:2553fb24690c4fe0f91f711e6090c946
C1 - September Song.flac:ff0cd2d9d7aeeecb6112f28ef5e404e6
C2 - On The Sunny Side Of The Street.flac:fe097a103eaa00baa98cf76016f3176d
D1 - Moonlight In Vermont.flac:c73ae269010c31c2f7b2be6f45c7de74
D2 - Don't Get Around Much Anymore.flac:08f475af843d3c48e5d04a99d5687844
D3 - Someone To Watch Over Me.flac:55c66cb6f0dbcaafca07a96ae465dcd2
_________________________________

Dynamic range analysis:
--------------------------------------------------------------------------------
Analyzed: ? / ?
--------------------------------------------------------------------------------

DR Peak RMS Duration Track
--------------------------------------------------------------------------------
DR14 -1.28 dB -18.50 dB 3:53 ?-A1 - Stardust
DR14 -0.27 dB -19.04 dB 4:20 ?-A2 - Georgia On My Mind
DR13 -4.61 dB -20.98 dB 3:36 ?-B1 - Blue Skies
DR15 -0.16 dB -18.75 dB 3:57 ?-B2 - All Of Me
DR13 -3.15 dB -20.78 dB 3:48 ?-B3 - Unchained Melody
DR15 -1.18 dB -20.43 dB 4:37 ?-C1 - September Song
DR14 -1.12 dB -18.64 dB 2:36 ?-C2 - On The Sunny Side Of The Street
DR14 -3.59 dB -20.90 dB 3:26 ?-D1 - Moonlight In Vermont
DR14 -0.15 dB -18.73 dB 2:36 ?-D2 - Don't Get Around Much Anymore
DR13 -0.92 dB -18.44 dB 4:02 ?-D3 - Someone To Watch Over Me
--------------------------------------------------------------------------------

Number of tracks: 10
Maximum peak difference (-0.15 dB - -4.61 dB): 4.46 dB

Official DR value (Song Mode): DR14
========================================

One of Willie's greatest recordings, and an audiophile lovers dream.... hard to find and OOP, this was part of Classic Records single sided 45 RPM series, pressed on 200 gram Quiex vinyl. That's 800 grams of vinyl for 37 minutes of music. I compared this to my previous go-to, the Mastersound gold CD. This is much more open and transparent, you can hear every detail in the recording.